<svg version="1.0" xmlns="http://www.w3.org/2000/svg"
 width="1024.000000pt" height="1024.000000pt" viewBox="0 0 1024.000000 1024.000000"
 preserveAspectRatio="xMidYMid meet">

<g transform="translate(0.000000,1024.000000) scale(0.100000,-0.100000)"
fill="#fff" stroke="none">
<path d="M0 5375 l0 -4865 24 0 c39 0 47 -21 44 -117 l-3 -88 -33 -3 -32 -3 0
-150 0 -149 5120 0 5120 0 0 5120 0 5120 -5120 0 -5120 0 0 -4865z m5565 3850
c267 -29 475 -71 725 -146 697 -210 1338 -604 1836 -1129 143 -151 181 -197
357 -433 101 -136 263 -414 363 -622 137 -287 224 -547 300 -900 62 -291 84
-514 84 -876 0 -471 -56 -858 -192 -1319 -93 -316 -276 -737 -412 -950 -201
-313 -315 -459 -535 -684 -430 -441 -851 -716 -1481 -968 -201 -81 -574 -180
-859 -228 -420 -71 -1021 -62 -1431 20 -241 49 -328 71 -540 137 -214 67 -347
121 -558 227 -481 241 -805 484 -1184 887 -158 167 -206 225 -333 404 -181
255 -317 502 -427 775 -177 438 -251 702 -303 1085 -91 676 -32 1330 173 1935
204 599 535 1124 1007 1595 82 83 185 179 228 213 42 34 110 88 150 120 118
96 243 181 402 275 614 362 1241 557 1915 597 183 11 545 3 715 -15z m-5354
-8836 c29 -20 29 -21 29 -120 0 -54 3 -99 6 -99 4 0 23 10 42 22 34 21 34 22
14 31 -21 10 -50 73 -38 84 14 15 78 -28 91 -62 20 -45 7 -76 -46 -115 -49
-35 -77 -38 -113 -9 -26 20 -26 22 -26 155 0 74 3 134 6 134 3 0 19 -9 35 -21z"/>
<path d="M4825 8884 c-802 -83 -1455 -331 -2050 -777 -174 -130 -470 -418
-634 -617 -465 -563 -754 -1264 -820 -1985 -68 -745 64 -1496 371 -2110 123
-246 208 -385 384 -625 209 -286 519 -588 829 -806 562 -396 1214 -625 1915
-674 601 -42 1175 46 1720 262 146 58 450 213 588 299 135 85 349 239 440 316
100 85 321 310 436 444 112 131 269 355 350 502 321 581 479 1153 505 1822 30
800 -132 1484 -497 2100 -104 176 -169 266 -356 495 -214 262 -633 623 -915
790 -432 255 -771 392 -1186 479 -315 66 -457 82 -760 86 -154 2 -298 1 -320
-1z m308 -730 c176 -39 313 -160 377 -333 20 -52 44 -271 30 -271 -3 0 -48 12
-100 25 -151 40 -315 58 -470 52 -111 -4 -159 -12 -272 -41 -76 -20 -140 -36
-143 -36 -11 0 -4 140 10 195 55 212 200 363 397 411 71 17 87 17 171 -2z
m148 -810 c209 -36 455 -131 578 -223 163 -123 257 -248 311 -416 22 -67 23
-92 31 -530 4 -253 13 -489 19 -525 35 -202 112 -417 214 -596 l35 -62 -80
-12 c-158 -23 -356 -101 -493 -195 l-67 -46 -857 -1 c-471 0 -1003 0 -1180 1
l-324 1 40 48 c131 157 259 443 339 755 l36 142 7 460 c8 507 7 497 79 657 68
150 239 317 416 405 128 64 288 113 441 137 125 20 340 20 455 0z m1684 -2623
c204 -52 381 -150 523 -289 103 -101 148 -164 216 -297 183 -362 164 -816 -48
-1134 -62 -93 -206 -244 -297 -312 -203 -150 -517 -236 -766 -209 -475 51
-859 349 -1013 785 -58 165 -65 453 -17 637 53 200 192 422 356 567 181 159
327 229 576 277 118 23 326 12 470 -25z m-1397 -255 c2 -2 -17 -30 -41 -63
-62 -82 -115 -168 -123 -198 l-6 -25 -1222 0 c-673 0 -1226 3 -1229 7 -4 3 -1
13 7 22 19 21 132 221 140 246 6 20 13 20 1238 17 677 -1 1233 -4 1236 -6z
m-440 -571 c178 0 183 -1 178 -20 -32 -134 -40 -352 -18 -470 18 -93 52 -217
63 -231 10 -13 -7 -27 -81 -64 -99 -51 -204 -62 -314 -34 -126 32 -236 124
-301 250 -39 76 -40 79 -40 183 0 97 3 111 29 166 21 42 57 87 118 147 l89 88
47 -8 c26 -4 129 -7 230 -7z"/>
<path d="M4445 7027 c-86 -31 -208 -152 -259 -257 -69 -142 -68 -135 -76 -665
-8 -509 -9 -525 -60 -637 -25 -54 -25 -101 0 -155 26 -58 71 -85 130 -80 37 4
51 12 81 45 41 47 80 140 111 267 20 84 22 121 27 565 6 467 6 476 29 524 35
77 67 112 138 152 73 41 104 80 104 134 0 71 -64 131 -137 129 -15 0 -55 -10
-88 -22z"/>
<path d="M6590 4512 c-131 -10 -279 -63 -402 -144 -155 -102 -247 -205 -326
-363 -130 -258 -130 -520 -2 -775 117 -234 327 -406 584 -477 98 -27 364 -25
480 5 255 64 458 227 574 457 74 149 87 207 86 395 0 137 -4 178 -22 243 -84
305 -344 548 -675 632 -86 21 -216 34 -297 27z m-25 -267 c0 -44 -1 -45 -31
-45 -19 0 -48 -12 -72 -30 -77 -55 -122 -152 -122 -259 0 -150 79 -251 250
-321 140 -58 172 -74 200 -107 70 -79 60 -166 -23 -203 -68 -32 -138 -22 -177
25 -26 31 -88 55 -142 55 -43 0 -57 -5 -80 -27 -25 -24 -28 -34 -28 -87 0 -43
6 -71 19 -93 27 -44 102 -85 157 -87 l44 -1 0 -52 c0 -29 -4 -53 -8 -53 -24 0
-125 36 -184 66 -184 93 -341 303 -369 497 -35 235 100 514 316 652 33 22 103
56 155 76 52 20 95 38 95 38 0 1 0 -19 0 -44z m331 9 c121 -36 265 -139 334
-239 92 -133 133 -259 132 -405 0 -90 -4 -116 -29 -187 -42 -115 -86 -184
-177 -275 -64 -64 -97 -88 -170 -123 -50 -24 -123 -53 -163 -64 l-71 -19 -4
62 -3 63 55 -1 c88 0 188 62 230 144 26 52 43 151 38 223 -13 164 -132 285
-350 356 -82 27 -148 73 -148 103 0 36 47 104 84 122 69 33 133 19 227 -48 50
-37 99 -38 136 -4 51 47 49 100 -7 176 -40 55 -98 84 -182 90 -67 5 -68 5 -68
34 0 33 -2 33 136 -8z"/>
<path d="M4445 7027 c-86 -31 -208 -152 -259 -257 -69 -142 -68 -135 -76 -665
-8 -509 -9 -525 -60 -637 -25 -54 -25 -101 0 -155 26 -58 71 -85 130 -80 37 4
51 12 81 45 41 47 80 140 111 267 20 84 22 121 27 565 6 467 6 476 29 524 35
77 67 112 138 152 73 41 104 80 104 134 0 71 -64 131 -137 129 -15 0 -55 -10
-88 -22z"/>
<path d="M6590 4512 c-131 -10 -279 -63 -402 -144 -155 -102 -247 -205 -326
-363 -130 -258 -130 -520 -2 -775 117 -234 327 -406 584 -477 98 -27 364 -25
480 5 255 64 458 227 574 457 74 149 87 207 86 395 0 137 -4 178 -22 243 -84
305 -344 548 -675 632 -86 21 -216 34 -297 27z m-25 -267 c0 -44 -1 -45 -31
-45 -19 0 -48 -12 -72 -30 -77 -55 -122 -152 -122 -259 0 -150 79 -251 250
-321 140 -58 172 -74 200 -107 70 -79 60 -166 -23 -203 -68 -32 -138 -22 -177
25 -26 31 -88 55 -142 55 -43 0 -57 -5 -80 -27 -25 -24 -28 -34 -28 -87 0 -43
6 -71 19 -93 27 -44 102 -85 157 -87 l44 -1 0 -52 c0 -29 -4 -53 -8 -53 -24 0
-125 36 -184 66 -184 93 -341 303 -369 497 -35 235 100 514 316 652 33 22 103
56 155 76 52 20 95 38 95 38 0 1 0 -19 0 -44z m331 9 c121 -36 265 -139 334
-239 92 -133 133 -259 132 -405 0 -90 -4 -116 -29 -187 -42 -115 -86 -184
-177 -275 -64 -64 -97 -88 -170 -123 -50 -24 -123 -53 -163 -64 l-71 -19 -4
62 -3 63 55 -1 c88 0 188 62 230 144 26 52 43 151 38 223 -13 164 -132 285
-350 356 -82 27 -148 73 -148 103 0 36 47 104 84 122 69 33 133 19 227 -48 50
-37 99 -38 136 -4 51 47 49 100 -7 176 -40 55 -98 84 -182 90 -67 5 -68 5 -68
34 0 33 -2 33 136 -8z"/>
</g>
</svg>
